HIERARCHY
ROOT Hips
{
     OFFSET 1.88212 96.90440 -13.34250
     CHANNELS 6 Xposition Yposition Zposition Zrotation Xrotation Yrotation
     JOINT Spine
     {
          OFFSET 0.00000 11.89050 0.00000
          CHANNELS 3 Zrotation Xrotation Yrotation
          JOINT Spine1
          {
               OFFSET -0.00000 25.65740 0.12766
               CHANNELS 3 Zrotation Xrotation Yrotation
               JOINT HEad
               {
                    OFFSET 0.00000 8.73416 0.01134
                    CHANNELS 3 Zrotation Xrotation Yrotation
                    End Site
                    {
                         OFFSET -0.29000 12.77420 2.51395
                    }
               }
               JOINT LeftShoulder1
               {
                    OFFSET 8.99000 -0.36225 -0.22000
                    CHANNELS 3 Zrotation Xrotation Yrotation
                    JOINT LeftArm
                    {
                         OFFSET 10.28270 -0.00338 0.32212
                         CHANNELS 3 Zrotation Xrotation Yrotation
                         JOINT LeftForeArm
                         {
                              OFFSET 32.76690 0.09914 -1.42434
                              CHANNELS 3 Zrotation Xrotation Yrotation
                              JOINT LeftHand
                              {
                                   OFFSET 27.56430 0.08536 1.02216
                                   CHANNELS 3 Zrotation Xrotation Yrotation
                                   End Site
                                   {
                                        OFFSET 16.74430 -0.60000 1.50291
                                   }
                              }
                         }
                    }
               }
               JOINT RightShoulder
               {
                    OFFSET -8.99000 -0.36225 -0.22000
                    CHANNELS 3 Zrotation Xrotation Yrotation
                    JOINT RightArm
                    {
                         OFFSET -10.28270 -0.00338 0.32212
                         CHANNELS 3 Zrotation Xrotation Yrotation
                         JOINT RightForeArm
                         {
                              OFFSET -32.89710 0.09914 -1.42434
                              CHANNELS 3 Zrotation Xrotation Yrotation
                              JOINT RightHand
                              {
                                   OFFSET -27.49210 0.08536 1.02216
                                   CHANNELS 3 Zrotation Xrotation Yrotation
                                   End Site
                                   {
                                        OFFSET -16.63120 -0.60000 1.50291
                                   }
                              }
                         }
                    }
               }
          }
     }
     JOINT LeftUpLeg
     {
          OFFSET 8.94580 -8.66707 0.10165
          CHANNELS 3 Zrotation Xrotation Yrotation
          JOINT LeftLeg
          {
               OFFSET 0.00000 -44.42270 1.37270
               CHANNELS 3 Zrotation Xrotation Yrotation
               JOINT LeftFoot
               {
                    OFFSET -0.25355 -42.09240 -1.46059
                    CHANNELS 3 Zrotation Xrotation Yrotation
                    JOINT LeftToes
                    {
                         OFFSET -0.04000 -4.41509 8.49910
                         CHANNELS 3 Zrotation Xrotation Yrotation
                         End Site
                         {
                              OFFSET 0.08000 -0.04745 9.77979
                         }
                    }
               }
          }
     }
     JOINT RightUpLeg
     {
          OFFSET -8.94580 -8.66707 0.10165
          CHANNELS 3 Zrotation Xrotation Yrotation
          JOINT RightLeg
          {
               OFFSET 0.00000 -44.42270 1.37270
               CHANNELS 3 Zrotation Xrotation Yrotation
               JOINT RightFoot
               {
                    OFFSET 0.25355 -42.09240 -1.46059
                    CHANNELS 3 Zrotation Xrotation Yrotation
                    JOINT RightToes
                    {
                         OFFSET 0.04000 -4.41509 8.49910
                         CHANNELS 3 Zrotation Xrotation Yrotation
                         End Site
                         {
                              OFFSET -0.08000 -0.13745 9.77979
                         }
                    }
               }
          }
     }
}
MOTION
Frames: 20
Frame Time: 0.01667
47.19027 98.20000 0.32251 -7.06135 32.82903 143.11897 -24.57239 26.38423 6.05296 0.00659 0.01697 0.00317 -7.32966 -4.22369 21.93175 -0.50647 10.44293 -1.16811 -124.67339 -44.69724 -130.71373 -43.14603 51.46014 -67.33754 29.90981 20.71685 3.98387 6.09131 10.84575 -4.11087 66.53555 1.59590 99.77472 -11.85172 22.31928 99.05263 26.73942 7.19931 16.28205 -0.31358 -8.51646 11.32527 -36.17434 42.41815 63.95325 -23.03815 -0.82699 -0.50171 -19.50235 67.74102 12.64392 -38.29361 3.89896 25.25295 31.64144 10.88043 -46.64827 52.08953 -0.10199 -0.04706 -71.91210 -38.34134 25.67794 
47.07203 99.30299 0.72876 -8.84074 36.77729 141.04393 -27.94501 26.17720 7.81536 0.00081 0.02130 0.00746 -9.08296 -4.72905 20.81299 -1.75292 11.19950 0.00856 -111.08959 -50.14186 -121.81687 -30.64495 39.98619 -70.49093 29.22436 6.46688 -7.02137 3.02481 11.74121 -1.90273 64.55740 7.62874 102.17441 -12.29074 22.65553 98.08300 21.90540 6.06103 1.50685 0.84981 -13.99355 19.47689 -33.77271 55.40966 57.80860 -24.83012 -0.10177 -0.03683 -50.49299 57.78956 41.95004 -43.21711 5.22513 29.17170 30.46775 7.80562 -45.09649 57.87156 -0.09096 -0.03902 -78.03714 -35.39232 24.45177 
47.04560 100.32820 1.07687 -10.24011 40.30839 139.09073 -30.39954 25.68484 9.06491 -0.00649 0.02397 0.01041 -11.01496 -5.05624 19.96452 -3.18000 12.07184 1.46140 -93.57082 -53.87464 -107.56871 -20.97426 26.10403 -69.58639 23.08046 18.71720 7.59174 -0.05512 12.65227 0.29838 63.30970 11.49853 103.83814 -12.23966 22.65453 97.08099 25.37752 10.11821 6.68267 3.74184 -19.84842 28.07289 -23.39197 67.04389 47.03029 -48.76785 -0.71144 0.55122 -48.11274 46.89943 51.20065 -47.56676 6.27000 32.57579 29.26271 4.83301 -43.75395 63.06234 -0.07602 -0.03454 -83.65801 -32.48166 23.07537 
47.08923 101.17675 1.41057 -11.29729 43.48237 137.21263 -32.09296 25.03911 9.90390 -0.01399 0.02650 0.01220 -13.07090 -5.24944 19.35988 -4.86633 13.05736 3.04935 -73.30656 -54.01436 -89.35290 -13.29109 10.47045 -65.93022 22.50210 12.02176 -10.55944 -3.18488 13.59732 2.42055 62.57320 14.36898 105.18163 -11.94106 22.61332 95.97163 22.97104 8.77320 0.24428 8.74997 -25.60955 37.26213 -7.11337 74.37303 32.82958 -31.34448 0.25326 -0.72500 -79.59594 35.35131 56.98262 -51.33413 7.10769 35.47304 28.04550 2.08048 -42.65878 67.60798 -0.05858 -0.03249 -90.69113 -19.03787 7.67905 
47.16931 101.81277 1.73831 -12.03250 46.34863 135.37840 -33.18869 24.35112 10.41876 -0.01923 0.03019 0.01390 -15.19761 -5.35583 18.98139 -6.73473 14.14749 4.57851 -54.77111 -49.55719 -71.77453 -6.69110 -6.24066 -60.24338 15.90159 10.73203 6.84910 -6.27197 14.59953 4.54097 62.05941 16.80793 106.32482 -6.54945 23.32651 94.74437 20.68399 7.58364 18.82778 16.22824 -30.75053 47.07583 16.33909 78.16845 11.28066 -30.16287 -0.00550 -0.16178 -82.02852 29.40139 50.91706 -54.68274 7.79719 36.81983 26.96214 0.05948 -40.83969 71.47345 -0.04171 -0.03283 -94.20307 -22.89159 14.62923 
47.27574 102.20296 2.03569 -12.43867 48.93403 133.55511 -33.82275 23.71556 10.68024 -0.02391 0.03585 0.01710 -17.34805 -5.42014 18.80634 -8.71332 15.34149 6.03258 -41.60487 -41.34377 -58.42112 -0.43648 -23.48210 -53.04754 8.62600 4.29389 -9.36217 -9.52899 15.64187 6.86773 61.87176 22.54745 107.41259 -7.02115 24.61312 93.31065 22.20562 9.07575 9.60768 26.32180 -34.69308 57.33327 45.10835 78.23351 -16.38975 -30.07258 -0.02701 -0.06270 -69.25053 38.28742 45.91920 -57.45844 8.22362 36.74772 26.03957 -1.01202 -38.50062 74.70570 -0.02790 -0.03408 -98.07098 -18.46532 10.82562 
47.40881 102.34981 2.23098 -12.44755 51.25085 131.66750 -34.48338 24.31108 10.79955 -0.04118 0.13208 0.00749 -19.32478 -6.70184 18.52319 -10.23839 15.32844 7.22825 -33.99141 -31.00268 -49.16890 4.85232 -41.15423 -45.27701 8.85500 7.14386 4.15040 -12.14209 15.45457 8.76197 61.45094 26.48794 108.32620 -7.19821 25.28545 92.43446 20.89698 12.15775 12.94274 38.38299 -36.90183 67.34712 64.87294 75.01251 -37.07653 -29.38133 -0.01781 -0.10839 -63.59504 44.17569 47.13883 -59.66282 8.28540 35.41609 26.27290 -0.81342 -37.73436 76.75645 0.02018 -0.05179 -100.27582 -20.02876 14.20210 
47.58201 102.33337 2.22562 -11.95693 53.30564 129.59830 -35.12573 25.92274 10.93362 -0.03994 0.12659 0.01635 -21.15186 -8.71747 18.01214 -10.97125 14.39713 8.01473 -30.61287 -19.73569 -42.23137 7.35788 -59.33406 -39.72046 0.28445 7.05239 -18.94023 -13.86479 14.33041 10.09071 60.72947 29.43360 108.84897 -7.30320 25.56420 92.00368 21.46196 12.28461 8.41744 51.19458 -37.14943 76.02354 69.67647 71.57256 -44.64425 -25.32578 0.10934 -0.40388 -60.36621 51.52125 44.69404 -61.39922 7.93769 33.01027 27.20385 1.08314 -38.18017 78.27142 0.03289 -0.06143 -101.64254 -21.36144 16.45552 
47.78033 102.30109 1.91807 -10.91226 55.08042 127.24908 -35.20661 27.17554 10.94039 -0.02256 0.01820 0.01798 -22.92730 -10.11438 17.73591 -11.27351 13.77725 8.69675 -29.88633 -12.14505 -38.50017 3.16395 -74.64414 -38.28548 2.72356 5.95657 -0.03848 -14.87533 13.50910 11.35476 59.82316 31.80372 108.78489 -7.51161 25.74257 92.05518 3.85282 10.71703 26.22503 63.65954 -35.86917 82.48273 65.52839 69.54469 -44.79959 -27.63090 -0.11778 0.18571 -53.85943 56.26640 41.39121 -62.77977 7.65397 30.80712 27.35852 3.14177 -38.32048 79.90017 0.01357 -0.07072 -102.29539 -23.35844 19.82844 
47.97515 102.32087 1.35826 -9.35013 56.56559 124.61502 -34.72488 28.07592 10.86402 -0.02268 0.01149 0.01623 -24.61236 -11.08527 17.58160 -11.56462 13.33365 9.52092 -30.20555 -7.21614 -36.21200 -15.39590 -83.76699 -53.71243 -5.51274 13.50235 -15.66376 -15.49793 12.89505 12.57820 59.02243 33.70189 108.30714 -7.77224 25.83457 92.39333 18.09381 13.88754 10.54609 75.16064 -33.70041 86.37248 54.65071 68.74432 -38.72372 -29.83651 -0.14365 0.22923 -51.49103 56.47813 39.49986 -63.86537 7.47509 28.82893 26.91560 5.24966 -38.11094 81.50638 0.00682 -0.06222 -102.54350 -24.62922 22.20944 
48.11136 102.37834 0.59425 -7.36479 57.74997 121.76049 -33.73702 28.65330 10.71538 -0.02367 0.01245 0.01451 -26.19392 -11.58084 17.56163 -12.06857 13.22216 10.30321 -30.94410 -4.28441 -34.35587 -85.45554 -86.23688 -121.69119 -1.06746 11.57419 -9.94581 -16.09163 12.63777 13.63092 58.50223 35.23046 107.72652 -7.87855 25.68662 93.13503 7.87849 12.90805 20.83128 85.39279 -31.21965 87.72073 37.68323 68.02109 -26.33452 -33.68243 -0.26070 0.40190 -49.41577 54.73986 40.07140 -64.68702 7.40025 27.06515 26.01548 7.27821 -37.55272 82.92555 0.00171 -0.04949 -102.24537 -25.86639 24.60001 
48.13517 102.41171 -0.34777 -5.08407 58.61864 118.80125 -32.31585 28.95218 10.47729 -0.02553 0.01607 0.01281 -27.65749 -11.65625 17.66610 -12.87304 13.50114 10.95147 -32.01884 -2.72373 -32.66886 -118.33689 -83.64906 -153.08110 -4.93061 15.34487 -17.28431 -16.78261 12.82866 14.60470 58.21656 36.37217 107.03875 -7.91415 25.65096 93.78292 16.93241 13.69302 10.33845 94.14838 -28.81575 86.73787 15.15396 65.78547 -7.39959 -30.32464 0.22977 -0.26963 -53.52052 50.88888 40.99812 -65.26678 7.40153 25.48499 24.80223 9.12054 -36.69396 84.00523 -0.00237 -0.03541 -101.53793 -26.75525 26.47296 
48.00508 102.29080 -1.38991 -2.64394 59.16186 115.87737 -30.53071 29.03436 10.11729 -0.02841 0.02259 0.01250 -28.99434 -11.38777 17.88080 -13.95367 14.11933 11.45844 -33.40621 -2.02313 -31.01305 -124.19440 -81.35700 -157.73607 0.74386 1.32676 2.11473 -17.88569 13.33989 15.61326 58.55809 36.90046 106.20007 -7.57544 25.67368 94.47934 11.05589 13.15424 15.70592 101.17206 -26.71912 83.66032 -6.23908 60.31964 11.88197 -30.02757 0.03011 -0.02702 -52.64343 47.18214 41.09489 -65.60803 7.42324 24.04807 23.44720 10.74715 -35.62266 84.62836 -0.00450 -0.02170 -100.42254 -27.47443 28.10700 
47.72397 101.94193 -2.48122 -0.18500 59.37965 113.13937 -28.47074 28.94657 9.61411 -0.03168 0.02830 0.01140 -30.19001 -10.83837 18.19576 -15.27304 15.05585 11.82778 -35.06499 -1.85443 -29.46312 -123.53595 -79.76383 -156.17279 -1.93761 6.44810 -12.74892 -19.33848 14.16711 16.54550 59.32152 36.93420 105.35205 -6.89800 25.94976 94.87014 16.90128 12.70231 8.71377 106.28844 -25.10682 78.75816 -21.46255 54.41302 27.36280 -30.03812 -0.01143 0.03142 -48.45765 42.00390 36.52247 -65.71394 7.41493 22.71691 22.12329 12.18939 -34.43816 84.74716 -0.00468 -0.01009 -98.98824 -27.98713 29.39113 
47.32489 101.33312 -3.52042 2.16751 59.30018 110.72472 -27.22935 29.67635 9.60107 -0.08880 0.12166 0.02192 -30.62529 -10.97930 17.83800 -15.90209 15.19675 11.68757 -36.79974 -1.98001 -27.99716 -127.41272 -78.58942 -154.35796 -1.36316 5.48052 -7.74242 -20.05044 14.28345 16.63494 60.14670 36.67522 104.56602 -5.98427 26.23159 95.21834 13.52884 12.53709 11.00908 109.47627 -24.10053 72.31676 -33.06813 48.65012 41.55542 -30.04244 -0.04534 0.04986 -42.67662 33.54868 30.89864 -65.58492 7.34918 21.46989 20.97621 13.51939 -33.24098 84.37022 -0.00384 -0.00139 -97.31412 -28.37321 30.39704 
46.86262 100.50279 -4.34420 4.31289 59.00026 108.73158 -27.16205 31.29734 10.13740 -0.09423 0.10517 0.01100 -30.21958 -11.78968 16.96164 -15.78672 14.56218 11.19794 -38.55283 -2.20136 -26.66574 -126.72211 -77.83540 -150.60803 -3.53996 8.97704 -18.90243 -19.85826 13.72656 15.98241 60.83783 36.37645 103.70121 -5.15782 26.57768 95.74834 18.52873 1.94908 -10.71364 110.85563 -23.76198 64.65662 -43.55513 45.40936 54.77505 -27.22410 -0.05622 0.02617 -45.33218 41.59592 35.43559 -65.22134 7.21463 20.30786 20.11024 14.82051 -32.13326 83.52188 -0.00319 0.00435 -95.52571 -28.68708 31.07864 
46.39464 99.57193 -4.78049 6.18097 58.58823 107.20827 -28.33948 33.46932 11.20216 -0.10085 0.08411 0.00149 -28.99141 -13.11093 15.76537 -14.60435 13.33700 10.35684 -44.09786 -1.66577 -24.79911 -115.51686 -77.01781 -141.65306 -3.61983 12.35629 3.45094 -19.30205 12.45392 14.63635 63.24322 35.19302 98.53762 -3.51717 26.89350 95.45889 16.51221 5.84346 2.00856 110.43078 -24.02367 56.33046 -55.22548 43.31400 68.83215 -22.83767 -0.16006 0.26407 -47.71161 51.05310 42.35060 -64.61823 7.01346 19.24466 19.58676 16.15422 -31.21653 82.21171 -0.00373 0.00713 -93.73840 -29.02645 31.44267 
45.95866 98.69931 -4.72072 7.72431 58.15600 106.15071 -30.82984 35.86239 12.92949 -0.09988 0.06491 -0.00430 -27.92339 -13.49678 14.53206 -12.99812 11.59895 9.48758 -47.75093 -1.58046 -23.45517 -107.19679 -76.30040 -135.05495 -4.85987 13.82620 -3.52100 -18.13113 10.72010 12.68909 65.43488 33.88949 91.76172 -1.83576 27.32132 94.43661 18.81936 9.34092 1.11724 108.29670 -24.60804 48.37614 -66.09789 41.26048 81.15740 -32.48875 0.53491 -0.50677 -47.97476 45.82122 50.21825 -63.59514 6.11745 19.23843 19.83374 17.95003 -31.75891 80.48153 -0.00759 0.00678 -92.02635 -29.57150 31.47381 
45.57568 97.99301 -4.18085 8.92002 57.75929 105.51367 -34.45575 37.83699 15.38823 -0.09296 0.05640 -0.00210 -26.99097 -12.59460 13.48372 -10.73802 9.81622 8.65373 -50.28026 -1.66905 -22.54077 -100.40349 -75.73915 -129.78584 -4.22705 12.68559 -2.86805 -15.94392 9.04832 10.84107 66.62299 33.35642 87.78571 -0.98248 27.71791 94.65694 16.71422 11.89995 9.56816 104.93301 -25.16368 41.45162 -76.33080 38.81354 91.46928 -30.25581 -0.12186 0.15995 -58.90099 46.28866 54.61375 -62.16389 4.85273 20.28274 20.82407 19.95948 -33.73098 78.34971 -0.01517 0.00234 -90.39185 -30.44129 31.19722 
45.26115 97.46089 -3.24753 9.76446 57.37468 105.26659 -38.95663 39.30093 18.57429 -0.08447 0.05304 0.00532 -26.19502 -10.48240 12.68133 -7.66319 7.99640 7.84904 -52.20653 -1.79980 -22.00855 -94.18800 -75.34484 -125.10168 -4.59929 13.49217 -7.53213 -12.77488 7.38454 9.28156 67.18359 33.02684 85.18366 -0.59513 27.99226 95.40503 18.08347 12.73609 6.40949 100.69656 -25.48756 35.78009 -84.49923 35.80010 99.85310 -30.10601 -0.07434 0.05565 -63.30977 41.01292 57.47378 -60.41124 3.46988 22.33615 22.58867 21.84429 -37.06494 75.86657 -0.02416 -0.00574 -88.78714 -31.59737 30.65272 
